<svg width="24" height="24" viewBox="0 0 24 24" fill="none" xmlns="http://www.w3.org/2000/svg">
<path d="M20.0618 18.6992C21.1388 17.4033 21.888 15.867 22.2458 14.2203C22.6035 12.5737 22.5595 10.865 22.1173 9.23901C21.6751 7.61297 20.8477 6.11736 19.7052 4.8787C18.5628 3.64004 17.1388 2.69476 15.5537 2.12283C13.9686 1.5509 12.2691 1.36915 10.599 1.59295C8.92881 1.81675 7.33711 2.43952 5.95854 3.40857C4.57996 4.37762 3.45506 5.66445 2.67899 7.1602C1.90293 8.65594 1.49853 10.3166 1.5 12.0017C1.50057 14.4513 2.36381 16.8225 3.93825 18.6992L3.92325 18.7119C3.97575 18.7749 4.03575 18.8289 4.08975 18.8912C4.15725 18.9684 4.23 19.0412 4.29975 19.1162C4.50975 19.3442 4.72575 19.5632 4.95225 19.7687C5.02125 19.8317 5.0925 19.8902 5.16225 19.9502C5.40225 20.1572 5.649 20.3537 5.90475 20.5367C5.93775 20.5592 5.96775 20.5884 6.00075 20.6117V20.6027C7.75733 21.8388 9.85283 22.5022 12.0008 22.5022C14.1487 22.5022 16.2442 21.8388 18.0008 20.6027V20.6117C18.0338 20.5884 18.063 20.5592 18.0968 20.5367C18.3518 20.3529 18.5993 20.1572 18.8393 19.9502C18.909 19.8902 18.9803 19.8309 19.0493 19.7687C19.2758 19.5624 19.4918 19.3442 19.7018 19.1162C19.7715 19.0412 19.8435 18.9684 19.9118 18.8912C19.965 18.8289 20.0258 18.7749 20.0783 18.7112L20.0618 18.6992ZM12 6.00169C12.6675 6.00169 13.32 6.19963 13.8751 6.57048C14.4301 6.94133 14.8627 7.46844 15.1181 8.08514C15.3735 8.70184 15.4404 9.38044 15.3102 10.0351C15.1799 10.6898 14.8585 11.2912 14.3865 11.7632C13.9145 12.2352 13.3131 12.5566 12.6584 12.6868C12.0037 12.8171 11.3251 12.7502 10.7084 12.4948C10.0917 12.2393 9.56464 11.8068 9.19379 11.2517C8.82294 10.6967 8.625 10.0442 8.625 9.37669C8.625 8.48159 8.98058 7.62314 9.61352 6.99021C10.2465 6.35727 11.1049 6.00169 12 6.00169ZM6.00525 18.6992C6.01826 17.7144 6.41846 16.7744 7.11927 16.0824C7.82008 15.3904 8.76514 15.0022 9.75 15.0017H14.25C15.2349 15.0022 16.1799 15.3904 16.8807 16.0824C17.5815 16.7744 17.9817 17.7144 17.9948 18.6992C16.3499 20.1814 14.2142 21.0017 12 21.0017C9.78581 21.0017 7.65012 20.1814 6.00525 18.6992Z" fill="black"/>
</svg>
